<svg width="64" height="64" viewBox="0 0 64 64" fill="none" xmlns="http://www.w3.org/2000/svg">
  <rect width="64" height="64" rx="18" fill="#FFF1F5"/>
  <path d="M32 6C21.5 6 13 14.1 13 24.2C13 39.2 32 58 32 58C32 58 51 39.2 51 24.2C51 14.1 42.5 6 32 6Z" fill="#FF6F91"/>
  <path d="M22 25.2H42L39.7 18H24.3L22 25.2Z" fill="white"/>
  <path d="M23.5 25.2C23.5 27.3 25.1 29 27.1 29C29.1 29 30.7 27.3 30.7 25.2H23.5Z" fill="#FFD6E1"/>
  <path d="M30.7 25.2C30.7 27.3 32.3 29 34.3 29C36.3 29 37.9 27.3 37.9 25.2H30.7Z" fill="white"/>
  <path d="M37.9 25.2C37.9 27.3 39.5 29 41.5 29C43.5 29 45.1 27.3 45.1 25.2H37.9Z" fill="#FFD6E1"/>
  <path d="M24 30.5H40V42H35.5V34.8H28.5V42H24V30.5Z" fill="white"/>
</svg>
